o BoozleButton
v -0.85 0.1 0.4
v 0.85 0.1 0.4
v 0.85 0.1 -0.4
v -0.85 0.1 -0.4
v 0.920710678118654 6.12303176911189E-18 -0.470710678118655
v -0.920710678118654 6.16341830003697E-17 -0.470710678118655
v 0.920710678118654 6.16341830003697E-17 0.470710678118655
v -0.920710678118654 6.12303176911189E-18 0.470710678118655
vt 0.227272727272727 0.204545454545455
vt 1 0.204545454545455
vt 1 0.568181818181818
vt 0.227272727272727 0.568181818181818
vn 0 1 0
vn 0 0.1 0
vn -1.11022302462516E-16 6.12303176911189E-18 -0.1
vn 0.0999999999999999 6.12303176911189E-18 -5.55111512312578E-17
vn 1.11022302462516E-16 6.12303176911189E-18 0.1
vn -0.0999999999999999 6.12303176911189E-18 5.55111512312578E-17
g BoozleButton
f 1/1/1 2/2/1 3/3/1 4/4/1
f 4//2 3//2 5//3 6//3
f 6//3 5//3 5//3 6//3
f 3//2 2//2 7//4 5//4
f 5//4 7//4 7//4 5//4
f 2//2 1//2 8//5 7//5
f 7//5 8//5 8//5 7//5
f 1//2 4//2 6//6 8//6
f 8//6 6//6 6//6 8//6
#h 
