o BoozleButton
v 0.65 0.07 -0.4
v 0.65 0.07 0.4
v 0.685 0.0494974746830583 0.435
v 0.685 0.0494974746830583 -0.435
v 0.699497474683058 -5.12250289928795E-17 0.449497474683058
v 0.699497474683058 4.28612223837832E-18 -0.449497474683058
v -0.65 0.07 0.4
v -0.685 0.0494974746830583 0.435
v -0.699497474683058 4.28612223837832E-18 0.449497474683058
v -0.65 0.07 -0.4
v -0.685 0.0494974746830583 -0.435
v -0.699497474683058 -5.12250289928795E-17 -0.449497474683058
v -0.615 0.0494974746830584 0.365
v -0.615 0.0494974746830583 -0.365
v -0.600502525316941 5.97972734696362E-17 0.350502525316942
v -0.600502525316941 4.28612223837832E-18 -0.350502525316942
v 0.615 0.0494974746830583 0.365
v 0.600502525316941 4.28612223837832E-18 0.350502525316942
v 0.615 0.0494974746830584 -0.365
v 0.600502525316941 5.97972734696362E-17 -0.350502525316942
vn 0.505449465124423 0.862856209461017 0
vn 0.505449465124424 0.862856209461017 0
vn 0.505449465124424 0.862856209461016 4.12915013226038E-17
vn 0.505449465124423 0.862856209461017 4.12915013226038E-17
vn 0.959682982260669 0.281084637714816 1.34511481318711E-17
vn 0.959682982260668 0.281084637714818 1.34511481318712E-17
vn 0.959682982260668 0.281084637714817 -1.01160615591697E-16
vn 0.959682982260669 0.281084637714816 -1.01160615591697E-16
vn 0 0 0
vn 0 0.862856209461017 0.505449465124424
vn 0 0.862856209461017 0.505449465124424
vn 5.74125872436862E-18 0.862856209461017 0.505449465124424
vn 5.74125872436861E-18 0.862856209461016 0.505449465124424
vn -3.03435096989843E-17 0.281084637714819 0.959682982260668
vn -3.03435096989843E-17 0.281084637714818 0.959682982260668
vn -6.50058690582897E-17 0.281084637714818 0.959682982260668
vn -6.50058690582897E-17 0.281084637714819 0.959682982260668
vn -0.505449465124423 0.862856209461017 0
vn -0.505449465124424 0.862856209461017 0
vn -0.505449465124424 0.862856209461016 -4.12915013226038E-17
vn -0.505449465124423 0.862856209461017 -4.12915013226038E-17
vn -0.959682982260669 0.281084637714816 -1.34511481318711E-17
vn -0.959682982260668 0.281084637714818 -1.34511481318712E-17
vn -0.959682982260668 0.281084637714817 1.01160615591697E-16
vn -0.959682982260669 0.281084637714816 1.01160615591697E-16
vn 0 0.862856209461017 -0.505449465124424
vn 0 0.862856209461017 -0.505449465124424
vn -5.74125872436862E-18 0.862856209461017 -0.505449465124424
vn -5.74125872436861E-18 0.862856209461016 -0.505449465124424
vn 3.03435096989843E-17 0.281084637714819 -0.959682982260668
vn 3.03435096989843E-17 0.281084637714818 -0.959682982260668
vn 6.50058690582897E-17 0.281084637714818 -0.959682982260668
vn 6.50058690582897E-17 0.281084637714819 -0.959682982260668
vn 0.505449465124422 0.862856209461017 0
vn 0.505449465124422 0.862856209461017 -4.9210419384473E-17
vn 0.505449465124423 0.862856209461017 -4.9210419384473E-17
vn 0.959682982260666 0.281084637714824 -1.603082037634E-17
vn 0.959682982260667 0.281084637714822 -1.60308203763398E-17
vn 0.959682982260667 0.281084637714822 1.29732135894694E-16
vn 0.959682982260666 0.281084637714824 1.29732135894694E-16
vn 0 0.862856209461017 -0.505449465124422
vn 5.20176323975167E-17 0.862856209461017 -0.505449465124424
vn 5.20176323975167E-17 0.862856209461017 -0.505449465124422
vn 5.28256959650931E-17 0.281084637714821 -0.959682982260667
vn 5.28256959650931E-17 0.281084637714824 -0.959682982260666
vn -7.5722314776031E-17 0.281084637714824 -0.959682982260666
vn -7.57223147760312E-17 0.281084637714821 -0.959682982260667
vn -0.505449465124422 0.862856209461017 0
vn -0.505449465124422 0.862856209461017 4.9210419384473E-17
vn -0.505449465124423 0.862856209461017 4.9210419384473E-17
vn -0.959682982260666 0.281084637714824 1.603082037634E-17
vn -0.959682982260667 0.281084637714822 1.60308203763398E-17
vn -0.959682982260667 0.281084637714822 -1.29732135894694E-16
vn -0.959682982260666 0.281084637714824 -1.29732135894694E-16
vn 0 0.862856209461017 0.505449465124422
vn -5.20176323975167E-17 0.862856209461017 0.505449465124424
vn -5.20176323975167E-17 0.862856209461017 0.505449465124422
vn -5.28256959650931E-17 0.281084637714821 0.959682982260667
vn -5.28256959650931E-17 0.281084637714824 0.959682982260666
vn 7.5722314776031E-17 0.281084637714824 0.959682982260666
vn 7.57223147760312E-17 0.281084637714821 0.959682982260667
g BoozleButton
f 1//1 2//2 3//3 4//4
f 4//5 3//6 5//7 6//8
f 6//9 5//9 5//9 6//9
f 2//10 7//11 8//12 3//13
f 3//14 8//15 9//16 5//17
f 5//9 9//9 9//9 5//9
f 7//18 10//19 11//20 8//21
f 8//22 11//23 12//24 9//25
f 9//9 12//9 12//9 9//9
f 10//26 1//27 4//28 11//29
f 11//30 4//31 6//32 12//33
f 12//9 6//9 6//9 12//9
f 10//1 7//34 13//35 14//36
f 14//37 13//38 15//39 16//40
f 16//9 15//9 15//9 16//9
f 7//41 2//27 17//42 13//43
f 13//44 17//45 18//46 15//47
f 15//9 18//9 18//9 15//9
f 2//18 1//48 19//49 17//50
f 17//51 19//52 20//53 18//54
f 18//9 20//9 20//9 18//9
f 1//55 10//11 14//56 19//57
f 19//58 14//59 16//60 20//61
f 20//9 16//9 16//9 20//9
#h 
